<svg width="1481" height="369" viewBox="0 0 1481 369" fill="none" xmlns="http://www.w3.org/2000/svg">
<path d="M1404.91 185.694L1404.91 185.694C1397.04 163.916 1391.78 142.909 1386.64 122.383L1386.54 121.992C1379.43 93.5855 1373.1 68.26 1361.15 48.772L1361.15 48.7715C1354.2 37.4376 1345.76 28.7724 1335.44 22.7301C1325.12 16.6936 1313.13 13.394 1299.25 12.49C1285.37 11.586 1273.06 13.3023 1262.05 17.9497C1251.03 22.6016 1241.53 30.0983 1233.17 40.4351L1233.17 40.4356C1218.79 58.2196 1209.21 82.5378 1198.48 109.79L1198.35 110.118C1198.35 110.118 1198.35 110.118 1198.35 110.118C1190.59 129.804 1182.65 149.951 1172.02 170.524L1172.02 170.525C1163.49 187.038 1159.43 204.131 1160.05 221.279C1160.62 236.974 1165.1 252.243 1173.21 266.634L1173.22 266.637C1183.49 284.819 1199.14 300.711 1218.42 312.588L1218.42 312.589C1237.06 324.066 1258.31 331.17 1278.41 332.48C1298.51 333.79 1320.5 329.501 1340.48 320.54L1340.48 320.538C1361.13 311.238 1378.68 297.534 1391.22 280.84C1401.19 267.621 1407.59 253.06 1410.2 237.576L1410.2 237.57C1413.03 220.649 1411.22 203.175 1404.91 185.694ZM1375.2 268.802L1375.2 268.803C1354.2 296.738 1314.81 314.744 1279.71 312.459C1244.62 310.173 1207.88 287.188 1190.7 256.787L1190.7 256.786C1180.99 239.603 1172.99 212.439 1189.88 179.751L1189.88 179.751C1200.97 158.289 1209.51 136.619 1216.99 117.661L1217.05 117.496L1217.06 117.49C1227.58 90.6511 1236.43 68.3101 1248.77 53.0531L1248.77 53.0525C1255.19 45.1176 1262.11 39.6957 1269.99 36.393C1277.89 33.0843 1287 31.7984 1297.95 32.5114C1308.89 33.2243 1317.76 35.6814 1325.16 39.9867C1332.55 44.284 1338.71 50.5579 1344.04 59.2581L1344.04 59.2588C1354.3 75.9898 1360.18 99.2887 1367.17 127.256L1367.17 127.257L1367.22 127.428C1372.17 147.196 1377.83 169.79 1386.04 192.509C1398.54 227.111 1387.08 253.008 1375.2 268.802Z" fill="#4D9A5F" stroke="#4D9A5F" stroke-width="7.79425"/>
<path d="M259.372 94.88L213.2 272H160.972L132.714 155.434L103.446 272H51.2185L6.30769 94.88H52.48L77.9631 223.809L109.502 94.88H156.935L187.212 223.809L212.948 94.88H259.372ZM401.108 199.335C401.108 203.372 400.856 207.577 400.351 211.951H302.708C303.381 220.697 306.156 227.426 311.034 232.135C316.08 236.677 322.22 238.948 329.453 238.948C340.218 238.948 347.703 234.406 351.908 225.323H397.828C395.473 234.574 391.184 242.901 384.96 250.302C378.905 257.703 371.252 263.506 362 267.711C352.749 271.916 342.405 274.018 330.967 274.018C317.174 274.018 304.895 271.075 294.13 265.188C283.365 259.301 274.954 250.89 268.899 239.957C262.844 229.024 259.816 216.24 259.816 201.606C259.816 186.972 262.759 174.189 268.647 163.255C274.702 152.322 283.112 143.912 293.877 138.025C304.643 132.137 317.006 129.194 330.967 129.194C344.591 129.194 356.702 132.053 367.299 137.772C377.896 143.491 386.138 151.649 392.025 162.246C398.08 172.843 401.108 185.206 401.108 199.335ZM356.954 187.982C356.954 180.581 354.431 174.693 349.385 170.32C344.339 165.947 338.031 163.76 330.462 163.76C323.229 163.76 317.09 165.863 312.044 170.068C307.166 174.273 304.138 180.244 302.96 187.982H356.954ZM543.968 199.335C543.968 203.372 543.715 207.577 543.211 211.951H445.568C446.24 220.697 449.016 227.426 453.894 232.135C458.94 236.677 465.079 238.948 472.312 238.948C483.077 238.948 490.562 234.406 494.768 225.323H540.688C538.333 234.574 534.043 242.901 527.82 250.302C521.764 257.703 514.111 263.506 504.86 267.711C495.609 271.916 485.264 274.018 473.826 274.018C460.033 274.018 447.754 271.075 436.989 265.188C426.224 259.301 417.814 250.89 411.758 239.957C405.703 229.024 402.675 216.24 402.675 201.606C402.675 186.972 405.619 174.189 411.506 163.255C417.561 152.322 425.972 143.912 436.737 138.025C447.502 132.137 459.865 129.194 473.826 129.194C487.451 129.194 499.561 132.053 510.158 137.772C520.755 143.491 528.997 151.649 534.885 162.246C540.94 172.843 543.968 185.206 543.968 199.335ZM499.814 187.982C499.814 180.581 497.291 174.693 492.244 170.32C487.198 165.947 480.891 163.76 473.321 163.76C466.089 163.76 459.949 165.863 454.903 170.068C450.025 174.273 446.997 180.244 445.82 187.982H499.814ZM640.15 272L597.258 212.96V272H554.113V85.2923H597.258V188.486L639.898 131.212H693.135L634.599 201.858L693.639 272H640.15Z" fill="#1B3829"/>
<path d="M928.332 272L868.788 193.785V272H825.643V94.88H868.788V172.591L927.828 94.88H978.542L909.914 181.674L981.065 272H928.332ZM1121.67 199.335C1121.67 203.372 1121.41 207.577 1120.91 211.951H1023.27C1023.94 220.697 1026.72 227.426 1031.59 232.135C1036.64 236.677 1042.78 238.948 1050.01 238.948C1060.78 238.948 1068.26 234.406 1072.47 225.323H1118.39C1116.03 234.574 1111.74 242.901 1105.52 250.302C1099.46 257.703 1091.81 263.506 1082.56 267.711C1073.31 271.916 1062.96 274.018 1051.53 274.018C1037.73 274.018 1025.45 271.075 1014.69 265.188C1003.92 259.301 995.513 250.89 989.458 239.957C983.402 229.024 980.375 216.24 980.375 201.606C980.375 186.972 983.318 174.189 989.206 163.255C995.261 152.322 1003.67 143.912 1014.44 138.025C1025.2 132.137 1037.56 129.194 1051.53 129.194C1065.15 129.194 1077.26 132.053 1087.86 137.772C1098.45 143.491 1106.7 151.649 1112.58 162.246C1118.64 172.843 1121.67 185.206 1121.67 199.335ZM1077.51 187.982C1077.51 180.581 1074.99 174.693 1069.94 170.32C1064.9 165.947 1058.59 163.76 1051.02 163.76C1043.79 163.76 1037.65 165.863 1032.6 170.068C1027.72 174.273 1024.7 180.244 1023.52 187.982H1077.51ZM1210.28 235.415V272H1188.33C1172.69 272 1160.49 268.215 1151.74 260.646C1143 252.909 1138.62 240.377 1138.62 223.052V167.04H1121.47V131.212H1138.62V96.8984H1181.77V131.212H1210.03V167.04H1181.77V223.557C1181.77 227.762 1182.78 230.79 1184.8 232.64C1186.82 234.49 1190.18 235.415 1194.89 235.415H1210.28ZM1285.78 274.018C1271.99 274.018 1259.54 271.075 1248.44 265.188C1237.51 259.301 1228.85 250.89 1222.45 239.957C1216.23 229.024 1213.12 216.24 1213.12 201.606C1213.12 187.14 1216.31 174.441 1222.71 163.508C1229.1 152.406 1237.84 143.912 1248.95 138.025C1260.05 132.137 1272.5 129.194 1286.29 129.194C1300.08 129.194 1312.53 132.137 1323.63 138.025C1334.73 143.912 1343.48 152.406 1349.87 163.508C1356.26 174.441 1359.46 187.14 1359.46 201.606C1359.46 216.072 1356.18 228.855 1349.62 239.957C1343.23 250.89 1334.39 259.301 1323.12 265.188C1312.02 271.075 1299.58 274.018 1285.78 274.018ZM1285.78 236.677C1294.03 236.677 1301.01 233.649 1306.72 227.594C1312.61 221.538 1315.56 212.876 1315.56 201.606C1315.56 190.336 1312.7 181.674 1306.98 175.618C1301.43 169.563 1294.53 166.535 1286.29 166.535C1277.88 166.535 1270.9 169.563 1265.35 175.618C1259.8 181.506 1257.02 190.168 1257.02 201.606C1257.02 212.876 1259.71 221.538 1265.09 227.594C1270.64 233.649 1277.54 236.677 1285.78 236.677Z" fill="#1B3829"/>
<path d="M724.7 239.8C712.6 239.8 703.5 236.45 697.4 229.75C691.3 222.95 688.25 212.55 688.25 198.55C688.25 184.55 691.3 174.2 697.4 167.5C703.5 160.7 712.6 157.3 724.7 157.3C736.8 157.3 745.9 160.7 752 167.5C758.1 174.2 761.15 184.55 761.15 198.55C761.15 212.55 758.1 222.95 752 229.75C745.9 236.45 736.8 239.8 724.7 239.8ZM724.7 228.85C732.7 228.85 738.5 226.55 742.1 221.95C745.7 217.25 747.5 209.65 747.5 199.15V197.95C747.5 187.45 745.7 179.9 742.1 175.3C738.5 170.6 732.7 168.25 724.7 168.25C716.7 168.25 710.9 170.6 707.3 175.3C703.7 179.9 701.9 187.45 701.9 197.95V199.15C701.9 209.65 703.7 217.25 707.3 221.95C710.9 226.55 716.7 228.85 724.7 228.85ZM779.25 170.05H767.7V159.1H779.25V146.5C779.25 141.3 780.55 137 783.15 133.6C785.75 130.1 790.15 128.35 796.35 128.35C798.35 128.35 800.35 128.55 802.35 128.95C804.45 129.25 806.2 129.65 807.6 130.15V139.3H799.8C794.9 139.3 792.45 141.7 792.45 146.5V159.1H807.6V170.05H792.45V238H779.25V170.05Z" fill="#1B3829"/>
</svg>
